<?xml version="1.0" standalone="no"?>
<!DOCTYPE svg PUBLIC "-//W3C//DTD SVG 20010904//EN"
 "http://www.w3.org/TR/2001/REC-SVG-20010904/DTD/svg10.dtd">
<svg version="1.0" xmlns="http://www.w3.org/2000/svg"
 width="700.000000pt" height="700.000000pt" viewBox="0 0 700.000000 700.000000"
 preserveAspectRatio="xMidYMid meet">
<metadata>
Created by potrace 1.11, written by Peter Selinger 2001-2013
</metadata>
<g transform="translate(0.000000,700.000000) scale(0.100000,-0.100000)"
fill="#000000" stroke="none">
<path d="M3308 6995 c-2 -2 -34 -6 -73 -9 -38 -3 -81 -8 -95 -10 -14 -3 -59
-10 -100 -16 -104 -17 -101 -16 -209 -44 -628 -163 -1154 -531 -1486 -1040
-166 -255 -295 -589 -331 -856 -18 -137 -21 -196 -19 -355 3 -184 6 -225 32
-355 8 -41 16 -86 19 -100 3 -14 18 -70 35 -125 79 -257 192 -477 362 -704 93
-125 327 -361 441 -444 13 -9 18 -32 21 -87 5 -79 12 -150 20 -190 3 -14 7
-38 10 -55 8 -48 14 -82 40 -225 45 -246 54 -323 50 -440 -4 -133 -40 -227
-113 -299 -51 -49 -112 -73 -190 -73 -81 0 -104 4 -252 44 -148 40 -178 45
-223 42 -109 -9 -156 -98 -114 -213 41 -111 160 -209 342 -278 228 -88 498
-91 685 -8 179 80 298 236 345 455 21 97 111 378 115 360 1 -3 3 -18 5 -35 2
-16 7 -50 11 -75 4 -25 8 -54 9 -65 1 -11 5 -37 9 -58 4 -21 9 -61 12 -90 3
-28 8 -55 10 -59 10 -16 13 -243 4 -283 -5 -22 -11 -52 -14 -66 -16 -91 -84
-213 -203 -363 -102 -129 -133 -185 -133 -241 0 -101 130 -189 267 -180 110 7
202 54 309 160 146 143 251 366 290 610 3 17 7 41 9 55 3 14 7 97 10 185 9
273 13 322 35 397 21 71 87 210 102 216 5 2 8 8 8 13 0 11 90 134 97 134 6 0
49 -127 58 -170 3 -14 8 -37 11 -52 19 -92 19 -227 -1 -332 -3 -14 -14 -84
-25 -156 -12 -71 -23 -141 -25 -155 -5 -30 -14 -102 -20 -150 -2 -19 -6 -57
-10 -85 -3 -27 -7 -67 -10 -89 -10 -83 -18 -238 -19 -371 -5 -415 90 -637 280
-661 157 -19 263 89 291 296 14 103 8 394 -12 595 -2 22 -7 74 -10 115 -3 41
-7 89 -10 106 -9 74 -18 260 -18 399 0 166 11 250 49 370 29 91 114 276 125
269 6 -3 17 -45 25 -99 10 -65 9 -203 -2 -285 -16 -120 -11 -361 10 -458 86
-392 379 -700 644 -675 86 8 161 52 181 106 27 71 7 122 -115 292 -43 61 -85
122 -93 135 -60 102 -94 190 -107 280 -9 57 -4 181 10 241 8 35 17 75 19 89 3
14 20 79 37 145 18 66 35 130 38 143 6 31 22 28 23 -5 1 -16 3 -37 4 -48 7
-61 16 -123 20 -145 3 -14 7 -34 9 -46 16 -84 76 -226 124 -296 91 -131 238
-232 388 -267 75 -18 215 -21 276 -7 156 37 235 139 188 243 -23 51 -69 87
-213 163 -257 136 -321 222 -321 430 0 128 20 327 49 480 9 51 20 129 30 213
8 70 8 266 1 307 -6 33 -2 39 59 102 119 123 255 305 329 441 14 26 36 66 49
90 22 40 107 231 112 252 1 6 5 17 8 25 36 94 87 314 104 445 4 33 7 152 7
265 0 163 -5 231 -22 330 -104 611 -455 1141 -1000 1514 -313 214 -738 374
-1117 421 -28 4 -64 8 -80 11 -35 5 -472 14 -477 9z"/>
</g>
</svg>
